<?xml version="1.0" encoding="UTF-8"?>
<svg version="1.1" xmlns="http://www.w3.org/2000/svg" width="109" height="57">
<path d="M0 0 C35.97 0 71.94 0 109 0 C109 18.81 109 37.62 109 57 C73.03 57 37.06 57 0 57 C0 38.19 0 19.38 0 0 Z " fill="#040404" transform="translate(0,0)"/>
<path d="M0 0 C1.98 0 3.96 0 6 0 C6 7.59 6 15.18 6 23 C8.97 21.02 11.94 19.04 15 17 C14.35729017 11.0870696 12.80996216 5.65755469 11 0 C13.31 0 15.62 0 18 0 C18.41572266 1.28197266 18.41572266 1.28197266 18.83984375 2.58984375 C19.20207031 3.69457031 19.56429687 4.79929687 19.9375 5.9375 C20.29714844 7.03964844 20.65679687 8.14179688 21.02734375 9.27734375 C21.73856668 11.88123475 21.73856668 11.88123475 23 13 C24.99958364 13.04080783 27.00045254 13.04254356 29 13 C29.12117188 12.39671875 29.24234375 11.7934375 29.3671875 11.171875 C29.53476563 10.37265625 29.70234375 9.5734375 29.875 8.75 C30.03742188 7.96109375 30.19984375 7.1721875 30.3671875 6.359375 C30.99150075 4.03168856 31.84838542 2.10968048 33 0 C34.98 0 36.96 0 39 0 C38.7834375 0.73605469 38.566875 1.47210938 38.34375 2.23046875 C38.0653125 3.20628906 37.786875 4.18210937 37.5 5.1875 C37.2215625 6.15042969 36.943125 7.11335938 36.65625 8.10546875 C36.02967269 10.86912222 35.79964548 13.18001009 36 16 C36.33 16.33 36.66 16.66 37 17 C37.43340632 20.0524188 37.48555564 22.95327174 37 26 C34.40798407 28.80217939 32.60113499 29.79962167 29 31 C26.78910055 31.08358958 24.57573922 31.10731764 22.36328125 31.09765625 C20.60818237 31.09390991 20.60818237 31.09390991 18.81762695 31.09008789 C16.58758911 31.07643188 16.58758911 31.07643188 14.3125 31.0625 C9.589375 31.041875 4.86625 31.02125 0 31 C0 20.77 0 10.54 0 0 Z " fill="#F8F4F7" transform="translate(66,13)"/>
<path d="M0 0 C1.98 0 3.96 0 6 0 C6 3.96 6 7.92 6 12 C10.95 12 15.9 12 21 12 C21 8.04 21 4.08 21 0 C22.98 0 24.96 0 27 0 C27 10.23 27 20.46 27 31 C25.02 31 23.04 31 21 31 C21 26.38 21 21.76 21 17 C16.38 17 11.76 17 7 17 C7 21.62 7 26.24 7 31 C4.69 31 2.38 31 0 31 C0 20.77 0 10.54 0 0 Z " fill="#EEEEEE" transform="translate(31,13)"/>
<path d="M0 0 C1.68407396 0.72565788 3.33754139 1.52151262 4.984375 2.328125 C4.671875 4.265625 4.671875 4.265625 3.984375 6.328125 C2.994375 6.658125 2.004375 6.988125 0.984375 7.328125 C0.324375 6.998125 -0.335625 6.668125 -1.015625 6.328125 C-2.38905331 6.2591778 -3.76564602 6.24344792 -5.140625 6.265625 C-6.419375 6.28625 -7.698125 6.306875 -9.015625 6.328125 C-8.685625 7.978125 -8.355625 9.628125 -8.015625 11.328125 C-6.79875 11.59625 -5.581875 11.864375 -4.328125 12.140625 C0.7262146 13.4109192 4.0294211 14.89569415 6.984375 19.328125 C7.49272792 23.2254974 7.31399683 24.83369226 5.109375 28.140625 C1.85163619 31.49417966 -0.18624765 31.53240588 -4.765625 31.640625 C-10.22464444 31.62094104 -12.9597094 30.93338331 -17.015625 27.328125 C-16.355625 25.678125 -15.695625 24.028125 -15.015625 22.328125 C-10.140625 24.203125 -10.140625 24.203125 -9.015625 25.328125 C-7.49634462 25.39992464 -5.97395018 25.41204507 -4.453125 25.390625 C-3.62683594 25.38160156 -2.80054688 25.37257813 -1.94921875 25.36328125 C-1.31113281 25.35167969 -0.67304688 25.34007813 -0.015625 25.328125 C-0.510625 22.853125 -0.510625 22.853125 -1.015625 20.328125 C-1.84707031 20.08578125 -2.67851562 19.8434375 -3.53515625 19.59375 C-4.62183594 19.25859375 -5.70851563 18.9234375 -6.828125 18.578125 C-7.90707031 18.25328125 -8.98601563 17.9284375 -10.09765625 17.59375 C-13.25908876 16.22252626 -14.38915198 15.32572033 -16.015625 12.328125 C-16.66102756 9.57440742 -16.63902787 7.08809951 -16.015625 4.328125 C-11.39491008 -0.41418768 -6.53504219 -2.1783474 0 0 Z " fill="#EFEFEF" transform="translate(19.015625,12.671875)"/>
<path d="M0 0 C1.98 0 3.96 0 6 0 C6 10.23 6 20.46 6 31 C4.02 31 2.04 31 0 31 C0 20.77 0 10.54 0 0 Z " fill="#FCFCFC" transform="translate(66,13)"/>
<path d="M0 0 C1.46491151 2.79607022 2.62245922 5.57006766 3.625 8.5625 C3.88539062 9.32691406 4.14578125 10.09132813 4.4140625 10.87890625 C5 13 5 13 5 16 C0.05 16 -4.9 16 -10 16 C-10.7918958 10.89667149 -10.7918958 10.89667149 -10 8 C-7.83020786 6.01963416 -5.62593729 4.66054077 -3.06640625 3.2265625 C-0.85863643 2.16799605 -0.85863643 2.16799605 0 0 Z " fill="#FA6AC3" transform="translate(82,28)"/>
<path d="M0 0 C1.97297779 1.64239906 2.90678419 2.57819846 3.46875 5.12109375 C3.55349488 11.40280815 3.55349488 11.40280815 0.625 14.5625 C-2 16 -2 16 -4 16 C-3.39891424 10.34979382 -1.92471317 5.33835539 0 0 Z " fill="#F468BF" transform="translate(100,27)"/>
<path d="M0 0 C1.2065625 0.0309375 1.2065625 0.0309375 2.4375 0.0625 C1.7775 3.0325 1.1175 6.0025 0.4375 9.0625 C-0.2225 8.7325 -0.8825 8.4025 -1.5625 8.0625 C-2.29325648 5.7484378 -2.96388258 3.41421131 -3.5625 1.0625 C-2.5625 0.0625 -2.5625 0.0625 0 0 Z " fill="#F362BC" transform="translate(91.5625,25.9375)"/>
</svg>
